{"title":"Love Child S03E05 1080P WEB-DL AAC2 0 H 264","uid":15358905,"size":1752003889,"categoryP":"video","categoryS":"hd___tv_shows","magnet":"?xt=urn:btih:1664f557faf241196645c5aba151c3db58fd6273&amp;dn=Love+Child+S03E05+1080P+WEB-DL+AAC2+0+H+264&amp;tr=udp%3A%2F%2Ftracker.leechers-paradise.org%3A6969&amp;tr=udp%3A%2F%2Fzer0day.ch%3A1337&amp;tr=udp%3A%2F%2Fopen.demonii.com%3A1337&amp;tr=udp%3A%2F%2Ftracker.coppersurfer.tk%3A6969&amp;tr=udp%3A%2F%2Fexodus.desync.com%3A6969","seeders":1,"leechers":0,"uploader":"jmanwf","files":1,"time":1469013932,"description":"In Vietnam, Viv (Sophie Hensser) finds herself holding her newly orphaned baby nephew; Joan (Jessica\r\n\r\n\r\nVideo\r\nID                                       : 2\r\nFormat                                   : AVC\r\nFormat/Info                              : Advanced Video Codec\r\nFormat profile                           :   \r\nFormat settings, CABAC                   : Yes\r\nFormat settings, ReFrames                : 4 frames\r\nCodec ID                                 : avc1\r\nCodec ID/Info                            : Advanced Video Coding\r\nDuration                                 : 44mn 8s\r\nBit rate                                 : 5 162 Kbps\r\nWidth                                    : 1 912 pixels\r\nHeight                                   : 1 072 pixels\r\nDisplay aspect ratio                     : 16:9\r\nFrame rate mode                          : Variable\r\nFrame rate                               : 25.000 fps\r\nMinimum frame rate                       : 25.000 fps\r\nMaximum frame rate                       : 150.000 fps\r\nColor space                              : YUV\r\nChroma subsampling                       : 4:2:0\r\nBit depth                                : 8 bits\r\nScan type                                : Progressive\r\nBits/(Pixel*Frame)                       : 0.101\r\nStream size                              : 1.59 GiB (98%)\r\nLanguage                                 : English\r\nEncoded date                             : UTC 2016-07-20 03:13:44\r\nTagged date                              : UTC 2016-07-20 03:15:16\r\nColor range                              : Limited\r\nColor primaries                          : BT.709\r\nTransfer characteristics                 : BT.709\r\nMatrix coefficients                      : BT.709\r\n\r\nAudio\r\nID                                       : 1\r\nFormat                                   : AAC\r\nFormat/Info                              : Advanced Audio Codec\r\nFormat profile                           : LC\r\nCodec ID                                 : 40\r\nDuration                                 : 44mn 8s\r\nDuration_LastFrame                       : -3ms\r\nBit rate mode                            : Variable\r\nBit rate                                 : 126 Kbps\r\nMaximum bit rate                         : 194 Kbps\r\nChannel(s)                               : 2 channels\r\nChannel positions                        : Front: L R\r\nSampling rate                            : 48.0 KHz\r\nFrame rate                               : 46.875 fps (1024 spf)\r\nCompression mode                         : Lossy\r\nStream size                              : 39.9 MiB (2%)\r\nLanguage                                 : English\r\nDefault                                  : Yes\r\nAlternate group                          : 1\r\nEncoded date                             : UTC 2016-07-20 03:11:04\r\nTagged date                              : UTC 2016-07-20 03:13:44","torrent":{"xt":"urn:btih:1664f557faf241196645c5aba151c3db58fd6273","amp;dn":"Love+Child+S03E05+1080P+WEB-DL+AAC2+0+H+264","amp;tr":["udp%3A%2F%2Ftracker.leechers-paradise.org%3A6969","udp%3A%2F%2Fzer0day.ch%3A1337","udp%3A%2F%2Fopen.demonii.com%3A1337","udp%3A%2F%2Ftracker.coppersurfer.tk%3A6969","udp%3A%2F%2Fexodus.desync.com%3A6969"],"infoHash":"1664f557faf241196645c5aba151c3db58fd6273","infoHashBuffer":{"type":"Buffer","data":[22,100,245,87,250,242,65,25,102,69,197,171,161,81,195,219,88,253,98,115]},"announce":[],"urlList":[]}}